<mxfile host="drawio-plugin" modified="2021-10-24T23:07:30.682Z" agent="5.0 (X11; Linux x86_64) AppleWebKit/537.36 (KHTML, like Gecko) Chrome/89.0.4389.114 Safari/537.36" etag="Ef7psVgCNo6rDKxHiUmc" version="14.7.4" type="embed"><diagram id="P4yE_yWcVfe0M9a_Ch07" name="Страница 1"><mxGraphModel dx="1019" dy="726" grid="1" gridSize="10" guides="1" tooltips="1" connect="1" arrows="1" fold="1" page="1" pageScale="1" pageWidth="827" pageHeight="1169" math="0" shadow="0"><root><mxCell id="0"/><mxCell id="1" parent="0"/><mxCell id="y9eFopR5Uv-bdzVv1INQ-7" value="site.one" style="text;html=1;strokeColor=none;fillColor=none;align=center;verticalAlign=middle;whiteSpace=wrap;rounded=0;horizontal=1;" parent="1" vertex="1"><mxGeometry x="170" y="420" width="110" height="20" as="geometry"/></mxCell><mxCell id="J3UGp-EsXd7RF5NzbhIZ-6" value="" style="rounded=0;whiteSpace=wrap;html=1;fillColor=#dae8fc;imageAspect=1;strokeColor=#6c8ebf;dashed=1;" parent="1" vertex="1"><mxGeometry x="280" y="80" width="440" height="720" as="geometry"/></mxCell><mxCell id="J3UGp-EsXd7RF5NzbhIZ-3" value="&lt;font style=&quot;font-size: 20px&quot;&gt;Traefik Proxy&lt;br&gt;&lt;/font&gt;" style="rounded=0;whiteSpace=wrap;html=1;fillColor=#ffe6cc;strokeColor=#d79b00;" parent="1" vertex="1"><mxGeometry x="40" y="400" width="130" height="80" as="geometry"/></mxCell><mxCell id="J3UGp-EsXd7RF5NzbhIZ-10" value="Traefik Network" style="text;strokeColor=none;fillColor=none;align=center;verticalAlign=middle;spacingLeft=4;spacingRight=4;overflow=hidden;points=[[0,0.5],[1,0.5]];portConstraint=eastwest;rotatable=0;fontSize=15;labelPosition=center;verticalLabelPosition=middle;horizontal=0;direction=west;" parent="1" vertex="1"><mxGeometry x="240" y="620" width="40" height="180" as="geometry"/></mxCell><mxCell id="J3UGp-EsXd7RF5NzbhIZ-12" value="" style="rounded=0;whiteSpace=wrap;html=1;fontSize=15;align=center;verticalAlign=middle;fillColor=#d5e8d4;dashed=1;strokeColor=#82b366;" parent="1" vertex="1"><mxGeometry x="340" y="120" width="340" height="280" as="geometry"/></mxCell><mxCell id="J3UGp-EsXd7RF5NzbhIZ-13" value="" style="rounded=0;whiteSpace=wrap;html=1;fontSize=15;align=center;verticalAlign=middle;fillColor=#d5e8d4;dashed=1;strokeColor=#82b366;" parent="1" vertex="1"><mxGeometry x="340" y="480" width="340" height="280" as="geometry"/></mxCell><mxCell id="gYRJv6hXeujzdEFCf8wl-4" value="site_one_network" style="text;html=1;strokeColor=none;fillColor=none;align=center;verticalAlign=middle;whiteSpace=wrap;rounded=0;horizontal=1;" parent="1" vertex="1"><mxGeometry x="570" y="400" width="110" height="25" as="geometry"/></mxCell><mxCell id="gYRJv6hXeujzdEFCf8wl-5" value="site_two_network" style="text;html=1;strokeColor=none;fillColor=none;align=center;verticalAlign=middle;whiteSpace=wrap;rounded=0;horizontal=1;" parent="1" vertex="1"><mxGeometry x="570" y="760" width="110" height="25" as="geometry"/></mxCell><mxCell id="y9eFopR5Uv-bdzVv1INQ-5" style="edgeStyle=orthogonalEdgeStyle;rounded=0;orthogonalLoop=1;jettySize=auto;html=1;exitX=0.5;exitY=0;exitDx=0;exitDy=0;entryX=0.5;entryY=1;entryDx=0;entryDy=0;startArrow=classic;startFill=1;" parent="1" source="gYRJv6hXeujzdEFCf8wl-6" target="gYRJv6hXeujzdEFCf8wl-8" edge="1"><mxGeometry relative="1" as="geometry"/></mxCell><mxCell id="gYRJv6hXeujzdEFCf8wl-6" value="PHP 7.4 + apache2" style="rounded=0;whiteSpace=wrap;html=1;verticalAlign=middle;" parent="1" vertex="1"><mxGeometry x="380" y="320" width="260" height="40" as="geometry"/></mxCell><mxCell id="gYRJv6hXeujzdEFCf8wl-19" style="edgeStyle=orthogonalEdgeStyle;rounded=0;orthogonalLoop=1;jettySize=auto;html=1;exitX=0.5;exitY=1;exitDx=0;exitDy=0;entryX=0.5;entryY=0;entryDx=0;entryDy=0;startArrow=classic;startFill=1;" parent="1" source="gYRJv6hXeujzdEFCf8wl-7" target="gYRJv6hXeujzdEFCf8wl-12" edge="1"><mxGeometry relative="1" as="geometry"/></mxCell><mxCell id="gYRJv6hXeujzdEFCf8wl-7" value="Nginx" style="rounded=0;whiteSpace=wrap;html=1;verticalAlign=middle;" parent="1" vertex="1"><mxGeometry x="380" y="520" width="260" height="40" as="geometry"/></mxCell><mxCell id="gYRJv6hXeujzdEFCf8wl-8" value="DB MySQL" style="rounded=0;whiteSpace=wrap;html=1;verticalAlign=middle;" parent="1" vertex="1"><mxGeometry x="380" y="240" width="260" height="40" as="geometry"/></mxCell><mxCell id="gYRJv6hXeujzdEFCf8wl-11" value="DB MySQL" style="rounded=0;whiteSpace=wrap;html=1;verticalAlign=middle;" parent="1" vertex="1"><mxGeometry x="380" y="680" width="260" height="40" as="geometry"/></mxCell><mxCell id="gYRJv6hXeujzdEFCf8wl-20" style="edgeStyle=orthogonalEdgeStyle;rounded=0;orthogonalLoop=1;jettySize=auto;html=1;exitX=0.5;exitY=1;exitDx=0;exitDy=0;entryX=0.5;entryY=0;entryDx=0;entryDy=0;startArrow=classic;startFill=1;" parent="1" source="gYRJv6hXeujzdEFCf8wl-12" target="gYRJv6hXeujzdEFCf8wl-11" edge="1"><mxGeometry relative="1" as="geometry"/></mxCell><mxCell id="gYRJv6hXeujzdEFCf8wl-12" value="PHP 8.0 + php-fpm" style="rounded=0;whiteSpace=wrap;html=1;verticalAlign=middle;" parent="1" vertex="1"><mxGeometry x="380" y="600" width="260" height="40" as="geometry"/></mxCell><mxCell id="gYRJv6hXeujzdEFCf8wl-15" style="edgeStyle=orthogonalEdgeStyle;rounded=0;orthogonalLoop=1;jettySize=auto;html=1;exitX=1;exitY=0.25;exitDx=0;exitDy=0;entryX=0;entryY=0.5;entryDx=0;entryDy=0;" parent="1" source="J3UGp-EsXd7RF5NzbhIZ-3" target="gYRJv6hXeujzdEFCf8wl-6" edge="1"><mxGeometry relative="1" as="geometry"><mxPoint x="380" y="340" as="targetPoint"/><Array as="points"><mxPoint x="310" y="420"/><mxPoint x="310" y="340"/><mxPoint x="380" y="340"/></Array></mxGeometry></mxCell><mxCell id="gYRJv6hXeujzdEFCf8wl-16" style="edgeStyle=orthogonalEdgeStyle;rounded=0;orthogonalLoop=1;jettySize=auto;html=1;exitX=1;exitY=0.75;exitDx=0;exitDy=0;entryX=0;entryY=0.5;entryDx=0;entryDy=0;" parent="1" source="J3UGp-EsXd7RF5NzbhIZ-3" target="gYRJv6hXeujzdEFCf8wl-7" edge="1"><mxGeometry relative="1" as="geometry"><Array as="points"><mxPoint x="310" y="460"/><mxPoint x="310" y="540"/></Array></mxGeometry></mxCell><mxCell id="y9eFopR5Uv-bdzVv1INQ-6" value="site.two" style="text;html=1;strokeColor=none;fillColor=none;align=center;verticalAlign=middle;whiteSpace=wrap;rounded=0;horizontal=1;" parent="1" vertex="1"><mxGeometry x="170" y="460" width="110" height="20" as="geometry"/></mxCell></root></mxGraphModel></diagram></mxfile>